{
  "accessors": [
    {
      "bufferView": 3,
      "componentType": 5126,
      "count": 24,
      "max": [
        1.0,
        3.5000007152557373,
        1.0
      ],
      "min": [
        -1.0,
        1.5000007152557373,
        -1.0
      ],
      "type": "VEC3"
    },
    {
      "bufferView": 3,
      "byteOffset": 288,
      "componentType": 5126,
      "count": 24,
      "max": [
        1.0,
        1.0,
        1.0
      ],
      "min": [
        -1.0,
        -1.0,
        -1.0
      ],
      "type": "VEC3"
    },
    {
      "bufferView": 2,
      "componentType": 5126,
      "count": 24,
      "max": [
        0.5,
        1.0
      ],
      "min": [
        -3.725290298461914e-09,
        0.5
      ],
      "type": "VEC2"
    },
    {
      "bufferView": 1,
      "componentType": 5125,
      "count": 36,
      "type": "SCALAR"
    },
    {
      "bufferView": 3,
      "byteOffset": 576,
      "componentType": 5126,
      "count": 24,
      "max": [
        38.999996185302734,
        1.000000238418579,
        41.00001525878906
      ],
      "min": [
        -38.999996185302734,
        -0.9999997615814209,
        -41.00001525878906
      ],
      "type": "VEC3"
    },
    {
      "bufferView": 3,
      "byteOffset": 864,
      "componentType": 5126,
      "count": 24,
      "max": [
        1.0,
        1.0,
        1.0
      ],
      "min": [
        -1.0,
        -1.0,
        -1.0
      ],
      "type": "VEC3"
    },
    {
      "bufferView": 2,
      "byteOffset": 192,
      "componentType": 5126,
      "count": 24,
      "max": [
        0.625,
        0.5
      ],
      "min": [
        0.25,
        0.0
      ],
      "type": "VEC2"
    },
    {
      "bufferView": 1,
      "byteOffset": 144,
      "componentType": 5125,
      "count": 36,
      "type": "SCALAR"
    },
    {
      "bufferView": 3,
      "byteOffset": 1152,
      "componentType": 5126,
      "count": 24,
      "max": [
        -38.999996185302734,
        214.4999542236328,
        6.33333158493042
      ],
      "min": [
        -116.99998474121094,
        136.49996948242188,
        -31.666645050048828
      ],
      "type": "VEC3"
    },
    {
      "bufferView": 3,
      "byteOffset": 1440,
      "componentType": 5126,
      "count": 24,
      "max": [
        1.0,
        1.0,
        1.0
      ],
      "min": [
        -1.0,
        -1.0,
        -1.0
      ],
      "type": "VEC3"
    },
    {
      "bufferView": 2,
      "byteOffset": 384,
      "componentType": 5126,
      "count": 24,
      "max": [
        0.25,
        0.5
      ],
      "min": [
        0.0,
        0.1875
      ],
      "type": "VEC2"
    },
    {
      "bufferView": 1,
      "byteOffset": 288,
      "componentType": 5125,
      "count": 36,
      "type": "SCALAR"
    },
    {
      "bufferView": 3,
      "byteOffset": 1728,
      "componentType": 5126,
      "count": 24,
      "max": [
        -38.999996185302734,
        214.4999542236328,
        31.666645050048828
      ],
      "min": [
        -116.99998474121094,
        136.49996948242188,
        -6.33333158493042
      ],
      "type": "VEC3"
    },
    {
      "bufferView": 3,
      "byteOffset": 2016,
      "componentType": 5126,
      "count": 24,
      "max": [
        1.0,
        1.0,
        1.0
      ],
      "min": [
        -1.0,
        -1.0,
        -1.0
      ],
      "type": "VEC3"
    },
    {
      "bufferView": 2,
      "byteOffset": 576,
      "componentType": 5126,
      "count": 24,
      "max": [
        0.25,
        0.5
      ],
      "min": [
        0.0,
        0.1875
      ],
      "type": "VEC2"
    },
    {
      "bufferView": 1,
      "byteOffset": 432,
      "componentType": 5125,
      "count": 36,
      "type": "SCALAR"
    },
    {
      "bufferView": 3,
      "byteOffset": 2304,
      "componentType": 5126,
      "count": 24,
      "max": [
        116.99998474121094,
        214.4999542236328,
        31.666645050048828
      ],
      "min": [
        38.999996185302734,
        136.49996948242188,
        -6.33333158493042
      ],
      "type": "VEC3"
    },
    {
      "bufferView": 3,
      "byteOffset": 2592,
      "componentType": 5126,
      "count": 24,
      "max": [
        1.0,
        1.0,
        1.0
      ],
      "min": [
        -1.0,
        -1.0,
        -1.0
      ],
      "type": "VEC3"
    },
    {
      "bufferView": 2,
      "byteOffset": 768,
      "componentType": 5126,
      "count": 24,
      "max": [
        0.25,
        0.5
      ],
      "min": [
        0.0,
        0.1875
      ],
      "type": "VEC2"
    },
    {
      "bufferView": 1,
      "byteOffset": 576,
      "componentType": 5125,
      "count": 36,
      "type": "SCALAR"
    },
    {
      "bufferView": 3,
      "byteOffset": 2880,
      "componentType": 5126,
      "count": 24,
      "max": [
        116.99998474121094,
        214.4999542236328,
        6.33333158493042
      ],
      "min": [
        38.999996185302734,
        136.49996948242188,
        -31.666645050048828
      ],
      "type": "VEC3"
    },
    {
      "bufferView": 3,
      "byteOffset": 3168,
      "componentType": 5126,
      "count": 24,
      "max": [
        1.0,
        1.0,
        1.0
      ],
      "min": [
        -1.0,
        -1.0,
        -1.0
      ],
      "type": "VEC3"
    },
    {
      "bufferView": 2,
      "byteOffset": 960,
      "componentType": 5126,
      "count": 24,
      "max": [
        0.25,
        0.5
      ],
      "min": [
        0.0,
        0.1875
      ],
      "type": "VEC2"
    },
    {
      "bufferView": 1,
      "byteOffset": 720,
      "componentType": 5125,
      "count": 36,
      "type": "SCALAR"
    },
    {
      "bufferView": 5,
      "componentType": 5126,
      "count": 17,
      "max": [
        79.99999237060547,
        0.7155417799949646,
        0.3577708601951599,
        0.0,
        0.8000000715255737,
        79.99999237060547,
        1.3061443837614206e-07,
        0.0,
        0.3577706813812256,
        0.3577708601951599,
        79.99999237060547,
        0.0,
        1.200000286102295,
        2.4000000953674316,
        2.0313269999405748e-07,
        1.0
      ],
      "min": [
        -0.7155418395996094,
        -0.7155417799949646,
        -0.3577708899974823,
        0.0,
        -0.8000000715255737,
        -0.8000000715255737,
        -4.7683720083568915e-08,
        0.0,
        -0.3577709197998047,
        -0.3577708601951599,
        0.7155417203903198,
        0.0,
        -1.200000286102295,
        -1.2000000476837158,
        -1.7261506002341775e-07,
        1.0
      ],
      "type": "MAT4"
    },
    {
      "bufferView": 0,
      "componentType": 5123,
      "count": 24,
      "type": "VEC4"
    },
    {
      "bufferView": 4,
      "componentType": 5126,
      "count": 24,
      "max": [
        1.0,
        0.0,
        0.0,
        0.0
      ],
      "min": [
        1.0,
        0.0,
        0.0,
        0.0
      ],
      "type": "VEC4"
    },
    {
      "bufferView": 0,
      "byteOffset": 192,
      "componentType": 5123,
      "count": 24,
      "type": "VEC4"
    },
    {
      "bufferView": 4,
      "byteOffset": 384,
      "componentType": 5126,
      "count": 24,
      "max": [
        1.0,
        0.025660300627350807,
        0.0,
        0.0
      ],
      "min": [
        0.9743397235870361,
        0.0,
        0.0,
        0.0
      ],
      "type": "VEC4"
    },
    {
      "bufferView": 0,
      "byteOffset": 384,
      "componentType": 5123,
      "count": 24,
      "type": "VEC4"
    },
    {
      "bufferView": 4,
      "byteOffset": 768,
      "componentType": 5126,
      "count": 24,
      "max": [
        1.0,
        0.0,
        0.0,
        0.0
      ],
      "min": [
        1.0,
        0.0,
        0.0,
        0.0
      ],
      "type": "VEC4"
    },
    {
      "bufferView": 0,
      "byteOffset": 576,
      "componentType": 5123,
      "count": 24,
      "type": "VEC4"
    },
    {
      "bufferView": 4,
      "byteOffset": 1152,
      "componentType": 5126,
      "count": 24,
      "max": [
        1.0,
        0.0,
        0.0,
        0.0
      ],
      "min": [
        1.0,
        0.0,
        0.0,
        0.0
      ],
      "type": "VEC4"
    },
    {
      "bufferView": 0,
      "byteOffset": 768,
      "componentType": 5123,
      "count": 24,
      "type": "VEC4"
    },
    {
      "bufferView": 4,
      "byteOffset": 1536,
      "componentType": 5126,
      "count": 24,
      "max": [
        1.0,
        0.0,
        0.0,
        0.0
      ],
      "min": [
        1.0,
        0.0,
        0.0,
        0.0
      ],
      "type": "VEC4"
    },
    {
      "bufferView": 0,
      "byteOffset": 960,
      "componentType": 5123,
      "count": 24,
      "type": "VEC4"
    },
    {
      "bufferView": 4,
      "byteOffset": 1920,
      "componentType": 5126,
      "count": 24,
      "max": [
        1.0,
        0.0,
        0.0,
        0.0
      ],
      "min": [
        1.0,
        0.0,
        0.0,
        0.0
      ],
      "type": "VEC4"
    }
  ],
  "asset": {
    "extras": {
      "author": "None (https://sketchfab.com/None_Yaroslav)",
      "license": "CC-BY-4.0 (http://creativecommons.org/licenses/by/4.0/)",
      "source": "https://sketchfab.com/3d-models/minecraft-creeper-fceea33bc4b8487b8f709603d789f0a6",
      "title": "Minecraft Creeper"
    },
    "generator": "Sketchfab-12.66.0",
    "version": "2.0"
  },
  "bufferViews": [
    {
      "buffer": 0,
      "byteLength": 1152,
      "byteStride": 8,
      "name": "shortBufferViews",
      "target": 34962
    },
    {
      "buffer": 0,
      "byteLength": 864,
      "byteOffset": 1152,
      "name": "floatBufferViews",
      "target": 34963
    },
    {
      "buffer": 0,
      "byteLength": 1152,
      "byteOffset": 2016,
      "byteStride": 8,
      "name": "floatBufferViews",
      "target": 34962
    },
    {
      "buffer": 0,
      "byteLength": 3456,
      "byteOffset": 3168,
      "byteStride": 12,
      "name": "floatBufferViews",
      "target": 34962
    },
    {
      "buffer": 0,
      "byteLength": 2304,
      "byteOffset": 6624,
      "byteStride": 16,
      "name": "floatBufferViews",
      "target": 34962
    },
    {
      "buffer": 0,
      "byteLength": 1088,
      "byteOffset": 8928,
      "name": "floatBufferViews"
    }
  ],
  "buffers": [
    {
      "byteLength": 10016,
      "uri": "scene.bin"
    }
  ],
  "images": [
    {
      "uri": "textures/Material_baseColor.png"
    }
  ],
  "materials": [
    {
      "doubleSided": true,
      "name": "Material",
      "pbrMetallicRoughness": {
        "baseColorTexture": {
          "index": 0
        },
        "metallicFactor": 0.0
      }
    }
  ],
  "meshes": [
    {
      "name": "Head_Material_0",
      "primitives": [
        {
          "attributes": {
            "JOINTS_0": 25,
            "NORMAL": 1,
            "POSITION": 0,
            "TEXCOORD_0": 2,
            "WEIGHTS_0": 26
          },
          "indices": 3,
          "material": 0,
          "mode": 4
        }
      ]
    },
    {
      "name": "Body_Material_0",
      "primitives": [
        {
          "attributes": {
            "JOINTS_0": 27,
            "NORMAL": 5,
            "POSITION": 4,
            "TEXCOORD_0": 6,
            "WEIGHTS_0": 28
          },
          "indices": 7,
          "material": 0,
          "mode": 4
        }
      ]
    },
    {
      "name": "FRLeg_Material_0",
      "primitives": [
        {
          "attributes": {
            "JOINTS_0": 29,
            "NORMAL": 9,
            "POSITION": 8,
            "TEXCOORD_0": 10,
            "WEIGHTS_0": 30
          },
          "indices": 11,
          "material": 0,
          "mode": 4
        }
      ]
    },
    {
      "name": "FLLeg_Material_0",
      "primitives": [
        {
          "attributes": {
            "JOINTS_0": 31,
            "NORMAL": 13,
            "POSITION": 12,
            "TEXCOORD_0": 14,
            "WEIGHTS_0": 32
          },
          "indices": 15,
          "material": 0,
          "mode": 4
        }
      ]
    },
    {
      "name": "BLLeg_Material_0",
      "primitives": [
        {
          "attributes": {
            "JOINTS_0": 33,
            "NORMAL": 17,
            "POSITION": 16,
            "TEXCOORD_0": 18,
            "WEIGHTS_0": 34
          },
          "indices": 19,
          "material": 0,
          "mode": 4
        }
      ]
    },
    {
      "name": "BRLeg_Material_0",
      "primitives": [
        {
          "attributes": {
            "JOINTS_0": 35,
            "NORMAL": 21,
            "POSITION": 20,
            "TEXCOORD_0": 22,
            "WEIGHTS_0": 36
          },
          "indices": 23,
          "material": 0,
          "mode": 4
        }
      ]
    }
  ],
  "nodes": [
    {
      "children": [
        1
      ],
      "matrix": [
        1.0,
        0.0,
        0.0,
        0.0,
        0.0,
        2.220446049250313e-16,
        -1.0,
        0.0,
        0.0,
        1.0,
        2.220446049250313e-16,
        0.0,
        0.0,
        0.0,
        0.0,
        1.0
      ],
      "name": "Sketchfab_model"
    },
    {
      "children": [
        2
      ],
      "matrix": [
        0.009999999776482582,
        0.0,
        0.0,
        0.0,
        0.0,
        0.0,
        0.009999999776482582,
        0.0,
        0.0,
        -0.009999999776482582,
        0.0,
        0.0,
        0.0,
        0.0,
        0.0,
        1.0
      ],
      "name": "Creeper.fbx"
    },
    {
      "children": [
        3
      ],
      "name": "RootNode"
    },
    {
      "children": [
        4
      ],
      "matrix": [
        100.0,
        0.0,
        0.0,
        0.0,
        0.0,
        -1.629206793918314e-05,
        -99.99999999999868,
        0.0,
        0.0,
        99.99999999999868,
        -1.629206793918314e-05,
        0.0,
        0.0,
        -240.00001525878906,
        0.0,
        1.0
      ],
      "name": "Armature"
    },
    {
      "children": [
        5,
        7,
        9,
        11,
        13,
        15,
        17,
        6,
        8,
        10,
        12,
        14,
        16
      ],
      "name": "Object_4"
    },
    {
      "children": [
        18
      ],
      "name": "_rootJoint"
    },
    {
      "matrix": [
        79.99999523162842,
        0.0,
        0.0,
        0.0,
        0.0,
        4.898586904610863e-15,
        -79.99999523162842,
        0.0,
        0.0,
        79.99999523162842,
        4.898586904610863e-15,
        0.0,
        0.0,
        200.00004196166992,
        0.0,
        1.0
      ],
      "name": "Object_6"
    },
    {
      "mesh": 0,
      "name": "Object_7",
      "skin": 0
    },
    {
      "matrix": [
        39.99999761581421,
        0.0,
        0.0,
        0.0,
        0.0,
        4.898586904610863e-15,
        -79.99999523162842,
        0.0,
        0.0,
        120.00000476837158,
        7.347881086862668e-15,
        0.0,
        0.0,
        1.811981201171875e-05,
        0.0,
        1.0
      ],
      "name": "Object_8"
    },
    {
      "mesh": 1,
      "name": "Object_9",
      "skin": 0
    },
    {
      "matrix": [
        39.99999761581421,
        0.0,
        0.0,
        0.0,
        0.0,
        2.4492934523054316e-15,
        -39.99999761581421,
        0.0,
        0.0,
        60.00000238418579,
        3.673940543431334e-15,
        0.0,
        79.99999523162842,
        -179.9999771118164,
        39.99999761581421,
        1.0
      ],
      "name": "Object_10"
    },
    {
      "mesh": 2,
      "name": "Object_11",
      "skin": 0
    },
    {
      "matrix": [
        39.99999761581421,
        0.0,
        0.0,
        0.0,
        0.0,
        2.4492934523054316e-15,
        -39.99999761581421,
        0.0,
        0.0,
        60.00000238418579,
        3.673940543431334e-15,
        0.0,
        79.99999523162842,
        -179.9999771118164,
        -39.99999761581421,
        1.0
      ],
      "name": "Object_12"
    },
    {
      "mesh": 3,
      "name": "Object_13",
      "skin": 0
    },
    {
      "matrix": [
        39.99999761581421,
        0.0,
        0.0,
        0.0,
        0.0,
        2.4492934523054316e-15,
        -39.99999761581421,
        0.0,
        0.0,
        60.00000238418579,
        3.673940543431334e-15,
        0.0,
        -79.99999523162842,
        -179.9999771118164,
        -39.99999761581421,
        1.0
      ],
      "name": "Object_14"
    },
    {
      "mesh": 4,
      "name": "Object_15",
      "skin": 0
    },
    {
      "matrix": [
        39.99999761581421,
        0.0,
        0.0,
        0.0,
        0.0,
        2.4492934523054316e-15,
        -39.99999761581421,
        0.0,
        0.0,
        60.00000238418579,
        3.673940543431334e-15,
        0.0,
        -79.99999523162842,
        -179.9999771118164,
        39.99999761581421,
        1.0
      ],
      "name": "Object_16"
    },
    {
      "mesh": 5,
      "name": "Object_17",
      "skin": 0
    },
    {
      "children": [
        19,
        22,
        25,
        28,
        31
      ],
      "name": "Root_00",
      "rotation": [
        0.7071068286895752,
        0.0,
        0.0,
        0.7071067094802856
      ]
    },
    {
      "children": [
        20
      ],
      "name": "Spine_01",
      "translation": [
        0.0,
        1.2000000476837158,
        0.0
      ]
    },
    {
      "children": [
        21
      ],
      "name": "Head_02",
      "translation": [
        0.0,
        2.4000000953674316,
        0.0
      ]
    },
    {
      "name": "Head_end_011",
      "translation": [
        0.0,
        0.7999999523162842,
        0.0
      ]
    },
    {
      "children": [
        23
      ],
      "name": "Pelvis_FL_03",
      "rotation": [
        -0.1624598503112793,
        0.16245977580547333,
        -0.6881909370422363,
        0.6881909966468811
      ],
      "scale": [
        0.9999998807907104,
        0.9999998807907104,
        0.9999999403953552
      ],
      "translation": [
        0.0,
        1.2000000476837158,
        0.0
      ]
    },
    {
      "children": [
        24
      ],
      "name": "FLLeg_04",
      "rotation": [
        3.7106453021351626e-08,
        1.5255437801897642e-07,
        -0.7071068286895752,
        0.7071067094802856
      ],
      "translation": [
        -1.1920928955078125e-07,
        0.8944271802902222,
        -1.4536371806172436e-16
      ]
    },
    {
      "name": "FLLeg_end_012",
      "rotation": [
        -3.308722450212111e-24,
        5.551115123125783e-17,
        1.737079286361358e-23,
        1.0
      ],
      "translation": [
        0.0,
        1.2000000476837158,
        -5.551115123125783e-17
      ]
    },
    {
      "children": [
        26
      ],
      "name": "Pelvis_BL_05",
      "rotation": [
        -0.1624598503112793,
        -0.16245977580547333,
        0.6881909370422363,
        0.6881909966468811
      ],
      "scale": [
        0.9999998807907104,
        0.9999998807907104,
        0.9999999403953552
      ],
      "translation": [
        0.0,
        1.2000000476837158,
        0.0
      ]
    },
    {
      "children": [
        27
      ],
      "name": "BLLeg_06",
      "rotation": [
        -5.7723969604239755e-08,
        -5.7723969604239755e-08,
        0.7071068286895752,
        0.7071067094802856
      ],
      "scale": [
        0.9999999403953552,
        1.0,
        0.9999999403953552
      ],
      "translation": [
        1.1920928955078125e-07,
        0.8944271802902222,
        -1.4536371806172436e-16
      ]
    },
    {
      "name": "BLLeg_end_013",
      "rotation": [
        -1.1580528575742387e-23,
        -0.0,
        1.737079286361358e-23,
        1.0
      ],
      "translation": [
        -1.1102230246251565e-16,
        1.2000000476837158,
        5.551115123125783e-17
      ]
    },
    {
      "children": [
        29
      ],
      "name": "Pelvis_FR_07",
      "rotation": [
        0.16245979070663452,
        -0.1624598354101181,
        -0.6881909370422363,
        0.6881909966468811
      ],
      "scale": [
        0.9999999403953552,
        0.9999999403953552,
        0.9999999403953552
      ],
      "translation": [
        0.0,
        1.2000000476837158,
        0.0
      ]
    },
    {
      "children": [
        30
      ],
      "name": "FRLeg_08",
      "rotation": [
        -2.5622373556188904e-08,
        2.5622368227118386e-08,
        -0.7071068286895752,
        0.7071067094802856
      ],
      "translation": [
        -1.1920928955078125e-07,
        0.8944271802902222,
        -1.4222543769874113e-14
      ]
    },
    {
      "name": "FRLeg_end_014",
      "rotation": [
        6.617444900424222e-24,
        -2.7755575615628914e-17,
        9.926167350636332e-24,
        1.0
      ],
      "translation": [
        0.0,
        1.2000000476837158,
        0.0
      ]
    },
    {
      "children": [
        32
      ],
      "name": "PelvisBR_09",
      "rotation": [
        0.16245979070663452,
        0.1624598354101181,
        0.6881909370422363,
        0.6881909966468811
      ],
      "scale": [
        0.9999999403953552,
        0.9999999403953552,
        0.9999999403953552
      ],
      "translation": [
        0.0,
        1.2000000476837158,
        0.0
      ]
    },
    {
      "children": [
        33
      ],
      "name": "BRLeg_010",
      "rotation": [
        -1.2045278197092557e-07,
        6.920804196397512e-08,
        0.7071068286895752,
        0.7071067094802856
      ],
      "translation": [
        1.1920928955078125e-07,
        0.8944271802902222,
        -1.4222543769874113e-14
      ]
    },
    {
      "name": "BRLeg_end_015",
      "rotation": [
        3.308722450212111e-24,
        8.326672684688674e-17,
        -3.308722450212111e-24,
        1.0
      ],
      "translation": [
        1.1102230246251565e-16,
        1.2000000476837158,
        -5.551115123125783e-17
      ]
    }
  ],
  "samplers": [
    {
      "magFilter": 9728,
      "minFilter": 9728,
      "wrapS": 10497,
      "wrapT": 10497
    }
  ],
  "scene": 0,
  "scenes": [
    {
      "name": "Sketchfab_Scene",
      "nodes": [
        0
      ]
    }
  ],
  "skins": [
    {
      "inverseBindMatrices": 24,
      "joints": [
        5,
        18,
        19,
        20,
        21,
        22,
        23,
        24,
        25,
        26,
        27,
        28,
        29,
        30,
        31,
        32,
        33
      ],
      "skeleton": 5
    }
  ],
  "textures": [
    {
      "sampler": 0,
      "source": 0
    }
  ]
}
