{
  "accessors": [
    {
      "bufferView": 2,
      "componentType": 5126,
      "count": 82,
      "max": [
        1.7617260217666626,
        1.4265424013137817,
        0.15202230215072632
      ],
      "min": [
        -1.035826563835144,
        -1.6952550411224365,
        -0.15202230215072632
      ],
      "type": "VEC3"
    },
    {
      "bufferView": 2,
      "byteOffset": 984,
      "componentType": 5126,
      "count": 82,
      "max": [
        4.861374947040531e-08,
        1.2366031398869382e-07,
        1.0
      ],
      "min": [
        -7.434038451492597e-08,
        -4.7760050136957943e-08,
        -1.0
      ],
      "type": "VEC3"
    },
    {
      "bufferView": 1,
      "componentType": 5126,
      "count": 82,
      "max": [
        0.0,
        0.0
      ],
      "min": [
        0.0,
        0.0
      ],
      "type": "VEC2"
    },
    {
      "bufferView": 0,
      "componentType": 5125,
      "count": 162,
      "type": "SCALAR"
    },
    {
      "bufferView": 2,
      "byteOffset": 1968,
      "componentType": 5126,
      "count": 12,
      "max": [
        0.5129375457763672,
        0.48080772161483765,
        0.15202222764492035
      ],
      "min": [
        -0.4145529568195343,
        -0.4515700340270996,
        -0.15202222764492035
      ],
      "type": "VEC3"
    },
    {
      "bufferView": 2,
      "byteOffset": 2112,
      "componentType": 5126,
      "count": 12,
      "max": [
        9.68353042196668e-09,
        4.80095572186201e-08,
        1.0
      ],
      "min": [
        9.68353042196668e-09,
        4.8009550113192745e-08,
        -1.0
      ],
      "type": "VEC3"
    },
    {
      "bufferView": 1,
      "byteOffset": 656,
      "componentType": 5126,
      "count": 12,
      "max": [
        0.0,
        0.0
      ],
      "min": [
        0.0,
        0.0
      ],
      "type": "VEC2"
    },
    {
      "bufferView": 0,
      "byteOffset": 648,
      "componentType": 5125,
      "count": 24,
      "type": "SCALAR"
    },
    {
      "bufferView": 2,
      "byteOffset": 2256,
      "componentType": 5126,
      "count": 355,
      "max": [
        2.0658624172210693,
        2.039842367172241,
        0.1520223319530487
      ],
      "min": [
        -1.9708577394485474,
        -2.0094456672668457,
        -0.1520223319530487
      ],
      "type": "VEC3"
    },
    {
      "bufferView": 2,
      "byteOffset": 6516,
      "componentType": 5126,
      "count": 355,
      "max": [
        1.0,
        1.0,
        1.0
      ],
      "min": [
        -1.0,
        -1.0,
        -1.0
      ],
      "type": "VEC3"
    },
    {
      "bufferView": 1,
      "byteOffset": 752,
      "componentType": 5126,
      "count": 355,
      "max": [
        0.0,
        0.0
      ],
      "min": [
        0.0,
        0.0
      ],
      "type": "VEC2"
    },
    {
      "bufferView": 0,
      "byteOffset": 744,
      "componentType": 5125,
      "count": 648,
      "type": "SCALAR"
    },
    {
      "bufferView": 2,
      "byteOffset": 10776,
      "componentType": 5126,
      "count": 24,
      "max": [
        1.1308454275131226,
        1.099784255027771,
        0.15202227234840393
      ],
      "min": [
        -1.037418007850647,
        -1.0733879804611206,
        -0.15202227234840393
      ],
      "type": "VEC3"
    },
    {
      "bufferView": 2,
      "byteOffset": 11064,
      "componentType": 5126,
      "count": 24,
      "max": [
        3.777005019856006e-08,
        5.0309971300066536e-08,
        1.0
      ],
      "min": [
        0.0,
        4.624532223829192e-08,
        -1.0
      ],
      "type": "VEC3"
    },
    {
      "bufferView": 1,
      "byteOffset": 3592,
      "componentType": 5126,
      "count": 24,
      "max": [
        0.0,
        0.0
      ],
      "min": [
        0.0,
        0.0
      ],
      "type": "VEC2"
    },
    {
      "bufferView": 0,
      "byteOffset": 3336,
      "componentType": 5125,
      "count": 36,
      "type": "SCALAR"
    },
    {
      "bufferView": 2,
      "byteOffset": 11352,
      "componentType": 5126,
      "count": 52,
      "max": [
        1.4467815160751343,
        1.7306787967681885,
        0.15202230215072632
      ],
      "min": [
        -1.6616941690444946,
        -1.3875784873962402,
        -0.15202230215072632
      ],
      "type": "VEC3"
    },
    {
      "bufferView": 2,
      "byteOffset": 11976,
      "componentType": 5126,
      "count": 52,
      "max": [
        9.027792202687124e-08,
        2.3902995138769256e-08,
        1.0
      ],
      "min": [
        0.0,
        -9.191306560296653e-08,
        -1.0
      ],
      "type": "VEC3"
    },
    {
      "bufferView": 1,
      "byteOffset": 3784,
      "componentType": 5126,
      "count": 52,
      "max": [
        0.0,
        0.0
      ],
      "min": [
        0.0,
        0.0
      ],
      "type": "VEC2"
    },
    {
      "bufferView": 0,
      "byteOffset": 3480,
      "componentType": 5125,
      "count": 84,
      "type": "SCALAR"
    },
    {
      "bufferView": 2,
      "byteOffset": 12600,
      "componentType": 5126,
      "count": 50,
      "max": [
        1.4485409259796143,
        1.7306787967681885,
        0.15202230215072632
      ],
      "min": [
        -1.6616941690444946,
        -1.3875784873962402,
        -0.15202230215072632
      ],
      "type": "VEC3"
    },
    {
      "bufferView": 2,
      "byteOffset": 13200,
      "componentType": 5126,
      "count": 50,
      "max": [
        7.413857616711539e-08,
        1.3925919972734846e-07,
        1.0
      ],
      "min": [
        -4.0182587923709434e-08,
        -4.7563734284494785e-08,
        -1.0
      ],
      "type": "VEC3"
    },
    {
      "bufferView": 1,
      "byteOffset": 4200,
      "componentType": 5126,
      "count": 50,
      "max": [
        0.0,
        0.0
      ],
      "min": [
        0.0,
        0.0
      ],
      "type": "VEC2"
    },
    {
      "bufferView": 0,
      "byteOffset": 3816,
      "componentType": 5125,
      "count": 78,
      "type": "SCALAR"
    },
    {
      "bufferView": 2,
      "byteOffset": 13800,
      "componentType": 5126,
      "count": 40,
      "max": [
        1.1308594942092896,
        1.099784255027771,
        0.15202227234840393
      ],
      "min": [
        -1.037418007850647,
        -1.0733879804611206,
        -0.15202227234840393
      ],
      "type": "VEC3"
    },
    {
      "bufferView": 2,
      "byteOffset": 14280,
      "componentType": 5126,
      "count": 40,
      "max": [
        3.852983709862201e-08,
        9.407038703557191e-08,
        1.0
      ],
      "min": [
        -1.2863552889541552e-08,
        -2.4982410806728694e-08,
        -1.0
      ],
      "type": "VEC3"
    },
    {
      "bufferView": 1,
      "byteOffset": 4600,
      "componentType": 5126,
      "count": 40,
      "max": [
        0.0,
        0.0
      ],
      "min": [
        0.0,
        0.0
      ],
      "type": "VEC2"
    },
    {
      "bufferView": 0,
      "byteOffset": 4128,
      "componentType": 5125,
      "count": 60,
      "type": "SCALAR"
    },
    {
      "bufferView": 2,
      "byteOffset": 14760,
      "componentType": 5126,
      "count": 101,
      "max": [
        1.4485409259796143,
        1.1061519384384155,
        0.15202227234840393
      ],
      "min": [
        -1.3575576543807983,
        -1.3875784873962402,
        -0.15202227234840393
      ],
      "type": "VEC3"
    },
    {
      "bufferView": 2,
      "byteOffset": 15972,
      "componentType": 5126,
      "count": 101,
      "max": [
        9.923120813937203e-08,
        1.1769954966212026e-07,
        1.0
      ],
      "min": [
        -9.949833668088104e-08,
        -2.3888246047931716e-08,
        -1.0
      ],
      "type": "VEC3"
    },
    {
      "bufferView": 1,
      "byteOffset": 4920,
      "componentType": 5126,
      "count": 101,
      "max": [
        0.0,
        0.0
      ],
      "min": [
        0.0,
        0.0
      ],
      "type": "VEC2"
    },
    {
      "bufferView": 0,
      "byteOffset": 4368,
      "componentType": 5125,
      "count": 207,
      "type": "SCALAR"
    },
    {
      "bufferView": 2,
      "byteOffset": 17184,
      "componentType": 5126,
      "count": 48,
      "max": [
        0.818400502204895,
        0.7939721345901489,
        0.15202227234840393
      ],
      "min": [
        -0.7212029695510864,
        -0.7582200169563293,
        -0.15202227234840393
      ],
      "type": "VEC3"
    },
    {
      "bufferView": 2,
      "byteOffset": 17760,
      "componentType": 5126,
      "count": 48,
      "max": [
        5.2180993748152105e-08,
        7.190178763494259e-08,
        1.0
      ],
      "min": [
        -1.8916795241352702e-08,
        0.0,
        -1.0
      ],
      "type": "VEC3"
    },
    {
      "bufferView": 1,
      "byteOffset": 5728,
      "componentType": 5126,
      "count": 48,
      "max": [
        0.0,
        0.0
      ],
      "min": [
        0.0,
        0.0
      ],
      "type": "VEC2"
    },
    {
      "bufferView": 0,
      "byteOffset": 5196,
      "componentType": 5125,
      "count": 72,
      "type": "SCALAR"
    }
  ],
  "asset": {
    "extras": {
      "author": "MythicaI (https://sketchfab.com/MythicaI)",
      "license": "CC-BY-4.0 (http://creativecommons.org/licenses/by/4.0/)",
      "source": "https://sketchfab.com/3d-models/minecraft-ender-pearl-33365dcde8d14542879381242ff2f4c0",
      "title": "Minecraft Ender Pearl"
    },
    "generator": "Sketchfab-15.12.0",
    "version": "2.0"
  },
  "bufferViews": [
    {
      "buffer": 0,
      "byteLength": 5484,
      "name": "floatBufferViews",
      "target": 34963
    },
    {
      "buffer": 0,
      "byteLength": 6112,
      "byteOffset": 5484,
      "byteStride": 8,
      "name": "floatBufferViews",
      "target": 34962
    },
    {
      "buffer": 0,
      "byteLength": 18336,
      "byteOffset": 11596,
      "byteStride": 12,
      "name": "floatBufferViews",
      "target": 34962
    }
  ],
  "buffers": [
    {
      "byteLength": 29932,
      "uri": "scene.bin"
    }
  ],
  "materials": [
    {
      "doubleSided": true,
      "name": "Material.004",
      "pbrMetallicRoughness": {
        "baseColorFactor": [
          0.00518138,
          0.111932,
          0.0822827,
          1.0
        ],
        "metallicFactor": 0.0,
        "roughnessFactor": 0.980524711322644
      }
    },
    {
      "doubleSided": true,
      "name": "Material.005",
      "pbrMetallicRoughness": {
        "baseColorFactor": [
          0.00182114,
          0.0193823,
          0.0152085,
          1.0
        ],
        "metallicFactor": 0.0,
        "roughnessFactor": 0.9965682060701123
      }
    },
    {
      "doubleSided": true,
      "name": "Material.001",
      "pbrMetallicRoughness": {
        "baseColorFactor": [
          0.00367646,
          0.0382043,
          0.0295568,
          1.0
        ],
        "metallicFactor": 0.0,
        "roughnessFactor": 0.9932382798688859
      }
    },
    {
      "doubleSided": true,
      "name": "Material.008",
      "pbrMetallicRoughness": {
        "baseColorFactor": [
          0.266355,
          0.896269,
          0.783538,
          1.0
        ],
        "metallicFactor": 0.0,
        "roughnessFactor": 0.8313534935008319
      }
    },
    {
      "doubleSided": true,
      "name": "Material.003",
      "pbrMetallicRoughness": {
        "baseColorFactor": [
          0.0343394,
          0.318547,
          0.258183,
          1.0
        ],
        "metallicFactor": 0.0,
        "roughnessFactor": 0.9432561563437478
      }
    },
    {
      "doubleSided": true,
      "name": "Material.002",
      "pbrMetallicRoughness": {
        "baseColorFactor": [
          0.0103296,
          0.198069,
          0.144129,
          1.0
        ],
        "metallicFactor": 0.0,
        "roughnessFactor": 0.965506161460153
      }
    },
    {
      "doubleSided": true,
      "name": "Material.009",
      "pbrMetallicRoughness": {
        "baseColorFactor": [
          0.0262405,
          0.617206,
          0.428691,
          1.0
        ],
        "metallicFactor": 0.0,
        "roughnessFactor": 0.8931258001748194
      }
    },
    {
      "doubleSided": true,
      "name": "Material.007",
      "pbrMetallicRoughness": {
        "baseColorFactor": [
          0.00402462,
          0.0742135,
          0.0578054,
          1.0
        ],
        "metallicFactor": 0.0,
        "roughnessFactor": 0.9870069515156309
      }
    },
    {
      "doubleSided": true,
      "name": "Material.006",
      "pbrMetallicRoughness": {
        "baseColorFactor": [
          0.00182111,
          0.0409152,
          0.0343398,
          1.0
        ],
        "metallicFactor": 0.0,
        "roughnessFactor": 0.9928157254365039
      }
    }
  ],
  "meshes": [
    {
      "name": "Ender_Pearl_Material.004_0",
      "primitives": [
        {
          "attributes": {
            "NORMAL": 1,
            "POSITION": 0,
            "TEXCOORD_0": 2
          },
          "indices": 3,
          "material": 0,
          "mode": 4
        }
      ]
    },
    {
      "name": "Ender_Pearl_Material.005_0",
      "primitives": [
        {
          "attributes": {
            "NORMAL": 5,
            "POSITION": 4,
            "TEXCOORD_0": 6
          },
          "indices": 7,
          "material": 1,
          "mode": 4
        }
      ]
    },
    {
      "name": "Ender_Pearl_Material.001_0",
      "primitives": [
        {
          "attributes": {
            "NORMAL": 9,
            "POSITION": 8,
            "TEXCOORD_0": 10
          },
          "indices": 11,
          "material": 2,
          "mode": 4
        }
      ]
    },
    {
      "name": "Ender_Pearl_Material.008_0",
      "primitives": [
        {
          "attributes": {
            "NORMAL": 13,
            "POSITION": 12,
            "TEXCOORD_0": 14
          },
          "indices": 15,
          "material": 3,
          "mode": 4
        }
      ]
    },
    {
      "name": "Ender_Pearl_Material.003_0",
      "primitives": [
        {
          "attributes": {
            "NORMAL": 17,
            "POSITION": 16,
            "TEXCOORD_0": 18
          },
          "indices": 19,
          "material": 4,
          "mode": 4
        }
      ]
    },
    {
      "name": "Ender_Pearl_Material.002_0",
      "primitives": [
        {
          "attributes": {
            "NORMAL": 21,
            "POSITION": 20,
            "TEXCOORD_0": 22
          },
          "indices": 23,
          "material": 5,
          "mode": 4
        }
      ]
    },
    {
      "name": "Ender_Pearl_Material.009_0",
      "primitives": [
        {
          "attributes": {
            "NORMAL": 25,
            "POSITION": 24,
            "TEXCOORD_0": 26
          },
          "indices": 27,
          "material": 6,
          "mode": 4
        }
      ]
    },
    {
      "name": "Ender_Pearl_Material.007_0",
      "primitives": [
        {
          "attributes": {
            "NORMAL": 29,
            "POSITION": 28,
            "TEXCOORD_0": 30
          },
          "indices": 31,
          "material": 7,
          "mode": 4
        }
      ]
    },
    {
      "name": "Ender_Pearl_Material.006_0",
      "primitives": [
        {
          "attributes": {
            "NORMAL": 33,
            "POSITION": 32,
            "TEXCOORD_0": 34
          },
          "indices": 35,
          "material": 8,
          "mode": 4
        }
      ]
    }
  ],
  "nodes": [
    {
      "children": [
        1
      ],
      "matrix": [
        1.0,
        0.0,
        0.0,
        0.0,
        0.0,
        2.220446049250313e-16,
        -1.0,
        0.0,
        0.0,
        1.0,
        2.220446049250313e-16,
        0.0,
        0.0,
        0.0,
        0.0,
        1.0
      ],
      "name": "Sketchfab_model"
    },
    {
      "children": [
        2
      ],
      "matrix": [
        0.009999999776482582,
        0.0,
        0.0,
        0.0,
        0.0,
        0.0,
        0.009999999776482582,
        0.0,
        0.0,
        -0.009999999776482582,
        0.0,
        0.0,
        0.0,
        0.0,
        0.0,
        1.0
      ],
      "name": "e1885c1f53de4a5c82c8a8a2cf175fbb.fbx"
    },
    {
      "children": [
        3
      ],
      "name": "RootNode"
    },
    {
      "children": [
        4,
        5,
        6,
        7,
        8,
        9,
        10,
        11,
        12
      ],
      "matrix": [
        99.99999999997875,
        -1.8901470796200569e-19,
        -6.516826829283211e-05,
        0.0,
        2.848595668337005e-12,
        99.9999999999999,
        4.371138828672865e-06,
        0.0,
        6.516826829283205e-05,
        -4.371138828673793e-06,
        99.99999999997867,
        0.0,
        -28.318998336791992,
        -17.403244018554688,
        -8.418581273872405e-06,
        1.0
      ],
      "name": "Ender_Pearl"
    },
    {
      "mesh": 0,
      "name": "Ender_Pearl_Material.004_0"
    },
    {
      "mesh": 1,
      "name": "Ender_Pearl_Material.005_0"
    },
    {
      "mesh": 2,
      "name": "Ender_Pearl_Material.001_0"
    },
    {
      "mesh": 3,
      "name": "Ender_Pearl_Material.008_0"
    },
    {
      "mesh": 4,
      "name": "Ender_Pearl_Material.003_0"
    },
    {
      "mesh": 5,
      "name": "Ender_Pearl_Material.002_0"
    },
    {
      "mesh": 6,
      "name": "Ender_Pearl_Material.009_0"
    },
    {
      "mesh": 7,
      "name": "Ender_Pearl_Material.007_0"
    },
    {
      "mesh": 8,
      "name": "Ender_Pearl_Material.006_0"
    }
  ],
  "scene": 0,
  "scenes": [
    {
      "name": "Sketchfab_Scene",
      "nodes": [
        0
      ]
    }
  ]
}
